<svg width="64" height="64" viewBox="0 0 64 64" fill="none" xmlns="http://www.w3.org/2000/svg">
<circle cx="32" cy="32" r="32" fill="#0C0C0D"/>
<path d="M42.0073 8.00003C-2.79661 -0.32071 -3.33027 56.2768 32.9577 56.6647C33.2009 56.6673 33.4547 56.6856 33.6979 56.6823C36.0682 56.6508 46.418 54.9157 52.674 48.6667" stroke="#FAFAFA" stroke-width="3"/>
<path d="M29.3334 41.3333L42.1334 12L53.3334 41.3333" stroke="#FAFAFA" stroke-width="3"/>
<circle cx="42.6667" cy="8" r="2.66667" fill="#FAFAFA"/>
<ellipse cx="29.3333" cy="40.6667" rx="2.66667" ry="2" fill="#FAFAFA"/>
<ellipse cx="53.3333" cy="40.6667" rx="2.66667" ry="2" fill="#FAFAFA"/>
<path d="M54.7489 47.7658C55.3524 49.1092 55.025 50.5652 54.0174 51.0178C53.0099 51.4705 51.7038 50.7485 51.1002 49.4051C50.4966 48.0617 50.8241 46.6057 51.8316 46.153C52.8392 45.7003 54.1453 46.4224 54.7489 47.7658Z" fill="#FAFAFA"/>
<line x1="32.674" y1="32.3333" x2="40.674" y2="32.3333" stroke="#FAFAFA" stroke-width="2"/>
<line x1="42.6666" y1="36.3333" x2="50.6666" y2="36.3333" stroke="#FAFAFA" stroke-width="2"/>
<ellipse cx="42.6667" cy="36" rx="2.66667" ry="1.33333" fill="#FAFAFA"/>
<ellipse cx="40.6666" cy="32" rx="2" ry="1.33333" fill="#FAFAFA"/>
<rect x="20" y="45.3333" width="8" height="9.33333" fill="#FAFAFA"/>
<rect x="38.6666" y="45.3333" width="8" height="9.33333" fill="#FAFAFA"/>
<rect x="29.3334" y="44" width="8" height="12" fill="#FAFAFA"/>
<rect x="32" y="52" width="2.66667" height="2.66667" fill="#373737"/>
<rect x="21.3334" y="46.6667" width="2.66667" height="1.33333" fill="#373737"/>
<rect x="24" y="48" width="2.66667" height="1.33333" fill="#373737"/>
<rect x="21.3334" y="49.3333" width="2.66667" height="1.33333" fill="#373737"/>
<rect x="24" y="50.6667" width="2.66667" height="1.33333" fill="#373737"/>
<rect x="40" y="46.6667" width="5.33333" height="1.33333" fill="#373737"/>
<rect x="40" y="49.3333" width="5.33333" height="1.33333" fill="#373737"/>
<path d="M33.3334 44H37.3334V48L35.3334 46L33.3334 44Z" fill="#373737"/>
<path d="M29.3334 48V44H33.3334L31.3334 46L29.3334 48Z" fill="#373737"/>
<rect x="32" y="46.6667" width="2.66667" height="1.33333" fill="#373737"/>
</svg>
