<svg id="visual" viewBox="0 0 900 600" preserveAspectRatio="none" width="100%" height="600" xmlns="http://www.w3.org/2000/svg" xmlns:xlink="http://www.w3.org/1999/xlink" version="1.1"><path d="M0 294L15 281.2C30 268.3 60 242.7 90 254.7C120 266.7 150 316.3 180 306.5C210 296.7 240 227.3 270 201.8C300 176.3 330 194.7 360 211C390 227.3 420 241.7 450 244C480 246.3 510 236.7 540 245.8C570 255 600 283 630 296.2C660 309.3 690 307.7 720 283.8C750 260 780 214 810 193.3C840 172.7 870 177.3 885 179.7L900 182L900 601L885 601C870 601 840 601 810 601C780 601 750 601 720 601C690 601 660 601 630 601C600 601 570 601 540 601C510 601 480 601 450 601C420 601 390 601 360 601C330 601 300 601 270 601C240 601 210 601 180 601C150 601 120 601 90 601C60 601 30 601 15 601L0 601Z" fill="#ff4a1b"></path><path d="M0 183L15 215.8C30 248.7 60 314.3 90 320.5C120 326.7 150 273.3 180 268.8C210 264.3 240 308.7 270 320.8C300 333 330 313 360 302.3C390 291.7 420 290.3 450 307.8C480 325.3 510 361.7 540 362.8C570 364 600 330 630 314.8C660 299.7 690 303.3 720 291.2C750 279 780 251 810 250.5C840 250 870 277 885 290.5L900 304L900 601L885 601C870 601 840 601 810 601C780 601 750 601 720 601C690 601 660 601 630 601C600 601 570 601 540 601C510 601 480 601 450 601C420 601 390 601 360 601C330 601 300 601 270 601C240 601 210 601 180 601C150 601 120 601 90 601C60 601 30 601 15 601L0 601Z" fill="#fb3e2d"></path><path d="M0 237L15 258.3C30 279.7 60 322.3 90 335.5C120 348.7 150 332.3 180 335.7C210 339 240 362 270 360.8C300 359.7 330 334.3 360 320.5C390 306.7 420 304.3 450 293.7C480 283 510 264 540 285.2C570 306.3 600 367.7 630 370.2C660 372.7 690 316.3 720 285.7C750 255 780 250 810 257.7C840 265.3 870 285.7 885 295.8L900 306L900 601L885 601C870 601 840 601 810 601C780 601 750 601 720 601C690 601 660 601 630 601C600 601 570 601 540 601C510 601 480 601 450 601C420 601 390 601 360 601C330 601 300 601 270 601C240 601 210 601 180 601C150 601 120 601 90 601C60 601 30 601 15 601L0 601Z" fill="#f6333b"></path><path d="M0 359L15 350.3C30 341.7 60 324.3 90 316.8C120 309.3 150 311.7 180 310.2C210 308.7 240 303.3 270 314.3C300 325.3 330 352.7 360 355.8C390 359 420 338 450 347.2C480 356.3 510 395.7 540 418.2C570 440.7 600 446.3 630 438C660 429.7 690 407.3 720 393.7C750 380 780 375 810 360.8C840 346.7 870 323.3 885 311.7L900 300L900 601L885 601C870 601 840 601 810 601C780 601 750 601 720 601C690 601 660 601 630 601C600 601 570 601 540 601C510 601 480 601 450 601C420 601 390 601 360 601C330 601 300 601 270 601C240 601 210 601 180 601C150 601 120 601 90 601C60 601 30 601 15 601L0 601Z" fill="#ef2a47"></path><path d="M0 461L15 449.7C30 438.3 60 415.7 90 416.8C120 418 150 443 180 457C210 471 240 474 270 455C300 436 330 395 360 384.2C390 373.3 420 392.7 450 390.7C480 388.7 510 365.3 540 376.3C570 387.3 600 432.7 630 444C660 455.3 690 432.7 720 432.5C750 432.3 780 454.7 810 455.2C840 455.7 870 434.3 885 423.7L900 413L900 601L885 601C870 601 840 601 810 601C780 601 750 601 720 601C690 601 660 601 630 601C600 601 570 601 540 601C510 601 480 601 450 601C420 601 390 601 360 601C330 601 300 601 270 601C240 601 210 601 180 601C150 601 120 601 90 601C60 601 30 601 15 601L0 601Z" fill="#e72351"></path><path d="M0 397L15 408.3C30 419.7 60 442.3 90 458C120 473.7 150 482.3 180 476C210 469.7 240 448.3 270 433.5C300 418.7 330 410.3 360 405.5C390 400.7 420 399.3 450 402.3C480 405.3 510 412.7 540 422.8C570 433 600 446 630 455.2C660 464.3 690 469.7 720 474.8C750 480 780 485 810 479.3C840 473.7 870 457.3 885 449.2L900 441L900 601L885 601C870 601 840 601 810 601C780 601 750 601 720 601C690 601 660 601 630 601C600 601 570 601 540 601C510 601 480 601 450 601C420 601 390 601 360 601C330 601 300 601 270 601C240 601 210 601 180 601C150 601 120 601 90 601C60 601 30 601 15 601L0 601Z" fill="#dd205a"></path><path d="M0 461L15 458.8C30 456.7 60 452.3 90 456.8C120 461.3 150 474.7 180 481C210 487.3 240 486.7 270 487.3C300 488 330 490 360 485.5C390 481 420 470 450 466.5C480 463 510 467 540 472.5C570 478 600 485 630 482.5C660 480 690 468 720 472.3C750 476.7 780 497.3 810 509.2C840 521 870 524 885 525.5L900 527L900 601L885 601C870 601 840 601 810 601C780 601 750 601 720 601C690 601 660 601 630 601C600 601 570 601 540 601C510 601 480 601 450 601C420 601 390 601 360 601C330 601 300 601 270 601C240 601 210 601 180 601C150 601 120 601 90 601C60 601 30 601 15 601L0 601Z" fill="#d22061"></path><path d="M0 517L15 524C30 531 60 545 90 554.5C120 564 150 569 180 565.5C210 562 240 550 270 541.7C300 533.3 330 528.7 360 527.5C390 526.3 420 528.7 450 534.5C480 540.3 510 549.7 540 549.2C570 548.7 600 538.3 630 538C660 537.7 690 547.3 720 544.8C750 542.3 780 527.7 810 531.5C840 535.3 870 557.7 885 568.8L900 580L900 601L885 601C870 601 840 601 810 601C780 601 750 601 720 601C690 601 660 601 630 601C600 601 570 601 540 601C510 601 480 601 450 601C420 601 390 601 360 601C330 601 300 601 270 601C240 601 210 601 180 601C150 601 120 601 90 601C60 601 30 601 15 601L0 601Z" fill="#c62368"></path></svg> 