<svg id="visual" viewBox="0 0 900 600" width="900" height="600" preserveAspectRatio="none" xmlns="http://www.w3.org/2000/svg" xmlns:xlink="http://www.w3.org/1999/xlink" version="1.1"><path d="M0 496L21.5 477.3C43 458.7 86 421.3 128.8 413.2C171.7 405 214.3 426 257.2 428.8C300 431.7 343 416.3 385.8 419.2C428.7 422 471.3 443 514.2 435.3C557 427.7 600 391.3 642.8 377.5C685.7 363.7 728.3 372.3 771.2 378.3C814 384.3 857 387.7 878.5 389.3L900 391L900 0L878.5 0C857 0 814 0 771.2 0C728.3 0 685.7 0 642.8 0C600 0 557 0 514.2 0C471.3 0 428.7 0 385.8 0C343 0 300 0 257.2 0C214.3 0 171.7 0 128.8 0C86 0 43 0 21.5 0L0 0Z" fill="#ff4a1b"></path><path d="M0 338L21.5 349.7C43 361.3 86 384.7 128.8 390C171.7 395.3 214.3 382.7 257.2 372.7C300 362.7 343 355.3 385.8 357.2C428.7 359 471.3 370 514.2 386.5C557 403 600 425 642.8 426C685.7 427 728.3 407 771.2 392.3C814 377.7 857 368.3 878.5 363.7L900 359L900 0L878.5 0C857 0 814 0 771.2 0C728.3 0 685.7 0 642.8 0C600 0 557 0 514.2 0C471.3 0 428.7 0 385.8 0C343 0 300 0 257.2 0C214.3 0 171.7 0 128.8 0C86 0 43 0 21.5 0L0 0Z" fill="#fb3c30"></path><path d="M0 265L21.5 275C43 285 86 305 128.8 306.3C171.7 307.7 214.3 290.3 257.2 289.2C300 288 343 303 385.8 303.3C428.7 303.7 471.3 289.3 514.2 299.7C557 310 600 345 642.8 358.2C685.7 371.3 728.3 362.7 771.2 350.3C814 338 857 322 878.5 314L900 306L900 0L878.5 0C857 0 814 0 771.2 0C728.3 0 685.7 0 642.8 0C600 0 557 0 514.2 0C471.3 0 428.7 0 385.8 0C343 0 300 0 257.2 0C214.3 0 171.7 0 128.8 0C86 0 43 0 21.5 0L0 0Z" fill="#f4303f"></path><path d="M0 200L21.5 209.5C43 219 86 238 128.8 247.8C171.7 257.7 214.3 258.3 257.2 261.5C300 264.7 343 270.3 385.8 265.8C428.7 261.3 471.3 246.7 514.2 243C557 239.3 600 246.7 642.8 255.7C685.7 264.7 728.3 275.3 771.2 275.7C814 276 857 266 878.5 261L900 256L900 0L878.5 0C857 0 814 0 771.2 0C728.3 0 685.7 0 642.8 0C600 0 557 0 514.2 0C471.3 0 428.7 0 385.8 0C343 0 300 0 257.2 0C214.3 0 171.7 0 128.8 0C86 0 43 0 21.5 0L0 0Z" fill="#eb264c"></path><path d="M0 212L21.5 201.7C43 191.3 86 170.7 128.8 159.3C171.7 148 214.3 146 257.2 150C300 154 343 164 385.8 176.5C428.7 189 471.3 204 514.2 210.7C557 217.3 600 215.7 642.8 208.2C685.7 200.7 728.3 187.3 771.2 186C814 184.7 857 195.3 878.5 200.7L900 206L900 0L878.5 0C857 0 814 0 771.2 0C728.3 0 685.7 0 642.8 0C600 0 557 0 514.2 0C471.3 0 428.7 0 385.8 0C343 0 300 0 257.2 0C214.3 0 171.7 0 128.8 0C86 0 43 0 21.5 0L0 0Z" fill="#e02157"></path><path d="M0 95L21.5 108C43 121 86 147 128.8 148.8C171.7 150.7 214.3 128.3 257.2 115C300 101.7 343 97.3 385.8 103.8C428.7 110.3 471.3 127.7 514.2 136C557 144.3 600 143.7 642.8 149C685.7 154.3 728.3 165.7 771.2 167.2C814 168.7 857 160.3 878.5 156.2L900 152L900 0L878.5 0C857 0 814 0 771.2 0C728.3 0 685.7 0 642.8 0C600 0 557 0 514.2 0C471.3 0 428.7 0 385.8 0C343 0 300 0 257.2 0C214.3 0 171.7 0 128.8 0C86 0 43 0 21.5 0L0 0Z" fill="#d42060"></path><path d="M0 74L21.5 71C43 68 86 62 128.8 58.3C171.7 54.7 214.3 53.3 257.2 60.5C300 67.7 343 83.3 385.8 85.7C428.7 88 471.3 77 514.2 74.7C557 72.3 600 78.7 642.8 78.5C685.7 78.3 728.3 71.7 771.2 65C814 58.3 857 51.7 878.5 48.3L900 45L900 0L878.5 0C857 0 814 0 771.2 0C728.3 0 685.7 0 642.8 0C600 0 557 0 514.2 0C471.3 0 428.7 0 385.8 0C343 0 300 0 257.2 0C214.3 0 171.7 0 128.8 0C86 0 43 0 21.5 0L0 0Z" fill="#c62368"></path></svg>